<?xml version="1.0" encoding="utf-8"?>
<!-- Generator: Adobe Illustrator 16.0.3, SVG Export Plug-In . SVG Version: 6.00 Build 0)  -->
<!DOCTYPE svg PUBLIC "-//W3C//DTD SVG 1.1//EN" "http://www.w3.org/Graphics/SVG/1.1/DTD/svg11.dtd">
<svg version="1.1" id="Layer_1" xmlns="http://www.w3.org/2000/svg" xmlns:xlink="http://www.w3.org/1999/xlink" x="0px" y="0px"
	 width="204.263px" height="19.832px" viewBox="0 0 204.263 19.832" enable-background="new 0 0 204.263 19.832"
	 xml:space="preserve">
<g>
	<path fill="#222222" d="M16.597,1.232c0.75,0,1.47-0.03,2.52-0.09c0.09,0,0.12,0.24,0.03,0.27c-1.56,0.15-1.8,0.24-1.95,0.39
		c-0.3,0.3-0.51,0.87-0.51,5.79c0,2.01-0.06,4.169-0.06,6.089c0,2.221,0.06,3.93,0.06,6.061c0,0.06-0.03,0.09-0.66,0.09
		c-0.63,0-0.69,0-0.72-0.03c-3.54-5.37-8.37-11.939-11.939-16.739h-0.03c-0.03,3.54,0.12,8.279,0.15,12.209
		c0.03,2.551,0.3,3.27,0.57,3.54c0.18,0.21,0.54,0.3,2.64,0.45c0.09,0,0.09,0.24,0,0.24c-1.35-0.09-1.98-0.09-3.3-0.09
		c-0.99,0-2.07,0.029-3.24,0.06c-0.06,0-0.09-0.24,0-0.24c1.83-0.09,2.07-0.239,2.28-0.45c0.39-0.359,0.6-1.199,0.6-4.14
		c0-3.78-0.12-6.899-0.09-11.879c0-0.09-0.33-0.6-0.51-0.81c-0.33-0.3-0.93-0.48-2.37-0.54c-0.09,0-0.09-0.27,0-0.27
		c1.05,0,2.4,0.03,3.36,0.03c2.01,0,3.24-0.06,3.66-0.06c0.24,0,0.3,0,0.66,0.51c2.7,3.84,5.879,8.279,8.43,11.849h0.03
		c0.03-1.409,0.06-4.229,0.06-5.64c0-3.99-0.24-5.58-0.66-6c-0.24-0.24-0.75-0.36-2.43-0.48c-0.09,0-0.06-0.24,0.03-0.24
		C14.077,1.143,15.547,1.232,16.597,1.232z"/>
	<path fill="#222222" d="M23.708,16.832c-1.5-1.5-2.61-3.57-2.61-6.51c0-2.31,0.9-4.53,2.79-6.419c1.74-1.71,4.05-3.03,7.44-3.03
		c2.88,0,5.31,1.38,6.899,2.94c1.38,1.38,2.4,3.629,2.4,6c0,2.82-1.11,5.219-3.12,7.2c-1.29,1.32-3.72,2.76-6.9,2.76
		C27.787,19.771,25.327,18.451,23.708,16.832z M25.717,10.982c0,3.6,0.39,5.16,0.96,6.27c0.78,1.59,2.28,2.22,4.02,2.22
		c2.07,0,3.45-0.81,4.26-2.431c0.63-1.26,1.08-3.479,1.08-6.719c0-3.899-0.33-5.97-0.96-7.229c-0.63-1.26-1.95-1.89-4.08-1.89
		c-2.34,0-3.69,1.11-4.29,2.31C26.077,4.802,25.717,6.722,25.717,10.982z"/>
	<path fill="#222222" d="M47.047,1.172c1.11,0,3.72-0.03,5.22-0.03c3,0,5.4,0.69,6.75,2.04c0.6,0.6,0.9,1.38,0.9,2.34
		c0,2.91-3.12,4.59-6.27,4.95v0.03c3.3,0.63,4.77,1.529,5.43,4.65c0.63,2.85,0.87,3.449,1.65,3.449c0.63,0,1.26-0.75,1.8-2.52
		c0.03-0.061,0.3,0.029,0.27,0.09c-0.72,2.46-1.71,3.479-3.81,3.479c-1.17,0-2.01-0.3-2.61-0.899c-0.87-0.87-1.32-1.95-1.86-4.95
		c-0.54-2.73-1.17-3.15-2.64-3.15h-2.34c-0.09,0-0.15,0.03-0.15,0.09c0,2.369-0.06,6.299-0.06,7.049c0,0.961,0.03,1.141,0.09,1.23
		c0.09,0.09,0.33,0.12,2.61,0.15c0.09,0,0.09,0.3,0,0.3c-2.73-0.06-6.06-0.12-9.48-0.03c-0.09,0-0.09-0.3,0-0.3
		c2.16-0.03,2.37-0.03,2.46-0.12c0.09-0.09,0.12-0.54,0.12-1.23c0-4.469,0.06-7.169,0.06-8.219c0-3.24-0.03-6.48-0.03-6.87
		c0-0.84-0.06-1.05-0.12-1.14c-0.09-0.09-0.27-0.09-2.49-0.12c-0.09,0-0.09-0.3,0-0.3C44.888,1.172,45.938,1.172,47.047,1.172z
		 M49.357,2.702c0,1.26,0.03,4.41,0.03,6.21c0,1.17,0,1.29,0.06,1.32c0.03,0.06,0.27,0.09,1.59,0.09c2.55,0,3.51-0.48,4.02-1.53
		c0.33-0.63,0.45-1.53,0.45-3.24c0-1.2-0.18-2.13-0.48-2.76c-0.45-0.9-1.47-1.32-3.45-1.32c-2.04,0-2.13,0-2.16,0.03
		C49.357,1.562,49.357,1.682,49.357,2.702z"/>
	<path fill="#222222" d="M68.077,1.172c1.11,0,3.72-0.03,5.22-0.03c3,0,5.4,0.69,6.75,2.04c0.6,0.6,0.9,1.38,0.9,2.34
		c0,2.91-3.12,4.59-6.27,4.95v0.03c3.3,0.63,4.77,1.529,5.43,4.65c0.63,2.85,0.87,3.449,1.65,3.449c0.63,0,1.26-0.75,1.8-2.52
		c0.03-0.061,0.3,0.029,0.27,0.09c-0.72,2.46-1.71,3.479-3.81,3.479c-1.17,0-2.01-0.3-2.61-0.899c-0.87-0.87-1.32-1.95-1.86-4.95
		c-0.54-2.73-1.17-3.15-2.64-3.15h-2.34c-0.09,0-0.15,0.03-0.15,0.09c0,2.369-0.06,6.299-0.06,7.049c0,0.961,0.03,1.141,0.09,1.23
		c0.09,0.09,0.33,0.12,2.61,0.15c0.09,0,0.09,0.3,0,0.3c-2.73-0.06-6.06-0.12-9.48-0.03c-0.09,0-0.09-0.3,0-0.3
		c2.16-0.03,2.37-0.03,2.46-0.12c0.09-0.09,0.12-0.54,0.12-1.23c0-4.469,0.06-7.169,0.06-8.219c0-3.24-0.03-6.48-0.03-6.87
		c0-0.84-0.06-1.05-0.12-1.14c-0.09-0.09-0.27-0.09-2.49-0.12c-0.09,0-0.09-0.3,0-0.3C65.917,1.172,66.967,1.172,68.077,1.172z
		 M70.387,2.702c0,1.26,0.03,4.41,0.03,6.21c0,1.17,0,1.29,0.06,1.32c0.03,0.06,0.27,0.09,1.59,0.09c2.55,0,3.51-0.48,4.02-1.53
		c0.33-0.63,0.45-1.53,0.45-3.24c0-1.2-0.18-2.13-0.48-2.76c-0.45-0.9-1.47-1.32-3.45-1.32c-2.04,0-2.13,0-2.16,0.03
		C70.387,1.562,70.387,1.682,70.387,2.702z"/>
	<path fill="#222222" d="M93.787,1.202c0.06,0,0.06,0.27-0.03,0.27c-1.68,0-1.95,0.03-2.04,0.12c-0.15,0.15-0.18,0.63-0.21,3.51
		c-0.03,1.95-0.03,4.56-0.03,6.09c0,1.86,0,3.78,0.03,5.4c0,1.92,0.09,2.25,0.18,2.34c0.09,0.12,0.39,0.15,2.34,0.21
		c0.09,0,0.09,0.271,0,0.271c-1.8-0.03-3.03-0.03-4.65-0.03c-1.38,0-2.88,0.03-4.59,0.06c-0.09,0-0.09-0.27,0-0.27
		c2.04-0.061,2.31-0.09,2.4-0.18c0.12-0.15,0.15-1.201,0.15-2.25c0-2.221,0.03-3.66,0.03-5.61c0-1.59-0.03-4.38-0.03-6.39
		c0-2.04-0.09-3-0.24-3.15c-0.09-0.09-1.2-0.12-2.19-0.15c-0.06,0-0.09-0.27,0.03-0.27C88.117,1.232,90.637,1.172,93.787,1.202z"/>
	<path fill="#222222" d="M109.927,0.933c0.06-0.12,0.24-0.06,0.24,0.03c-0.181,2.16-0.181,3.87-0.061,5.97
		c0,0.09-0.18,0.15-0.24,0.03c-0.78-1.92-1.56-3.209-2.37-3.99c-0.96-0.99-2.16-1.59-3.9-1.59c-1.62,0-2.58,0.42-3.24,1.11
		c-0.57,0.54-0.87,1.35-0.87,2.19c0,1.74,1.14,2.4,4.2,3.21c3.78,0.99,5.34,1.8,6.27,2.73c0.84,0.84,1.23,1.8,1.23,3.39
		c0,3.21-2.64,5.76-6.42,5.76c-3.42,0-5.25-1.8-5.73-1.8c-0.27,0-1.08,0.75-1.62,1.59c-0.06,0.12-0.21,0.03-0.21-0.06
		c0.06-2.1,0.06-3.811-0.21-6.57c0-0.119,0.18-0.18,0.24-0.06c1.05,2.52,1.95,3.87,2.82,4.77c1.08,1.08,2.73,1.771,4.74,1.771
		c1.47,0,2.55-0.391,3.15-1.021c0.57-0.54,0.9-1.229,0.9-2.25c0-1.739-1.26-2.7-4.8-3.569c-3.09-0.78-4.65-1.5-5.58-2.43
		c-0.87-0.84-1.23-1.83-1.23-3.39c0-3.03,2.49-5.7,6.39-5.7c3.21,0,4.83,1.56,5.04,1.56C108.846,2.612,109.506,1.742,109.927,0.933z
		"/>
	<path fill="#222222" d="M120.637,19.142c1.681,0,2.37-0.03,2.46-0.12c0.061-0.061,0.18-0.63,0.18-1.68
		c0-1.23,0.061-5.25,0.061-8.67c0-2.1-0.03-3.93-0.03-4.77c0-1.14-0.09-2.16-0.27-2.34c-0.06-0.09-0.45-0.09-2.22-0.12
		c-0.09,0-0.121-0.3,0.029-0.3c2.221,0.03,5.82,0.12,9.029,0.06c0.061,0,0.061,0.27,0,0.27c-1.92,0.03-2.159,0.09-2.25,0.15
		c-0.059,0.09-0.119,0.45-0.119,1.68c0,2.52,0,4.47,0.029,6.21c0.66,0,3.09,0.06,4.801,0.06c0.99,0,2.039-0.03,2.34-0.09
		c0.06-1.08,0.06-4.979,0.06-5.85c-0.03-1.71-0.06-1.98-0.18-2.1c-0.06-0.06-0.45-0.09-1.979-0.12c-0.061,0-0.061-0.27,0.029-0.27
		c3.72,0.06,7.47,0.03,8.88,0c0.06,0,0.06,0.27,0,0.27c-2.04,0.03-2.28,0.06-2.341,0.12c-0.09,0.09-0.209,0.57-0.209,2.04
		c0,0.81-0.061,3.87-0.061,6.39c0,2.25-0.06,4.229-0.06,6.989c0,1.351,0.06,1.92,0.239,2.07c0.061,0.09,0.391,0.09,2.28,0.09
		c0.091,0,0.091,0.301,0,0.301c-0.96,0-8.79,0.029-9.12,0.029c-0.09,0-0.09-0.3,0-0.3c1.681-0.03,2.16-0.06,2.25-0.149
		c0.091-0.09,0.181-0.631,0.181-3.57c0-1.35,0.03-3.391,0.03-5.52c-1.53,0.03-3.66,0-5.88,0c-0.48,0-1.11,0-1.261,0.06
		c-0.06,3.21-0.06,5.85-0.06,6.659c0,0.601,0.06,2.311,0.149,2.4c0.061,0.061,0.48,0.09,2.25,0.12c0.091,0,0.091,0.3,0,0.3
		c-2.1,0-3.149-0.06-4.59-0.06c-1.319,0-3.359,0.03-4.649,0.03C120.547,19.412,120.547,19.142,120.637,19.142z"/>
	<path fill="#222222" d="M151.866,1.202c0.09,0,0.09,0.27,0,0.27c-1.89,0-2.1,0.03-2.189,0.12c-0.15,0.15-0.27,1.29-0.27,6.84v5.459
		c0,2.04,0.39,2.97,1.14,3.72c0.78,0.78,2.01,1.23,3.87,1.23c2.85,0,4.979-1.92,5.01-5.22c0.029-2.97,0.06-6.48,0.06-8.28
		c0-2.25-0.3-3.18-0.659-3.54c-0.24-0.24-0.601-0.33-2.551-0.45c-0.06,0-0.06-0.21,0.03-0.21c2.22,0.09,4.29,0.12,6.239,0.06
		c0.061,0,0.061,0.18,0,0.21c-1.59,0.09-1.77,0.18-1.979,0.39c-0.33,0.33-0.601,1.08-0.601,3.36c0,2.13-0.06,5.13-0.06,8.34
		c0,3.72-2.34,6.24-6.93,6.24c-2.579,0-4.829-0.66-6.239-2.07c-0.99-0.96-1.471-2.07-1.471-4.32c0-2.58,0.061-7.529,0.061-10.109
		c0-1.14-0.061-1.56-0.15-1.65s-0.39-0.12-2.25-0.21c-0.09,0-0.09-0.24,0-0.24C146.077,1.202,148.297,1.172,151.866,1.202z"/>
	<path fill="#222222" d="M180.216,1.232c0.75,0,1.471-0.03,2.52-0.09c0.091,0,0.121,0.24,0.031,0.27
		c-1.561,0.15-1.801,0.24-1.951,0.39c-0.299,0.3-0.51,0.87-0.51,5.79c0,2.01-0.06,4.169-0.06,6.089c0,2.221,0.06,3.93,0.06,6.061
		c0,0.06-0.029,0.09-0.66,0.09c-0.629,0-0.689,0-0.719-0.03c-3.541-5.37-8.37-11.939-11.939-16.739h-0.031
		c-0.029,3.54,0.121,8.279,0.15,12.209c0.03,2.551,0.301,3.27,0.57,3.54c0.18,0.21,0.54,0.3,2.64,0.45c0.091,0,0.091,0.24,0,0.24
		c-1.35-0.09-1.979-0.09-3.3-0.09c-0.99,0-2.07,0.029-3.24,0.06c-0.06,0-0.09-0.24,0-0.24c1.83-0.09,2.07-0.239,2.28-0.45
		c0.39-0.359,0.601-1.199,0.601-4.14c0-3.78-0.121-6.899-0.09-11.879c0-0.09-0.33-0.6-0.511-0.81c-0.33-0.3-0.93-0.48-2.37-0.54
		c-0.09,0-0.09-0.27,0-0.27c1.051,0,2.4,0.03,3.36,0.03c2.01,0,3.239-0.06,3.659-0.06c0.24,0,0.301,0,0.66,0.51
		c2.7,3.84,5.88,8.279,8.43,11.849h0.03c0.03-1.409,0.06-4.229,0.06-5.64c0-3.99-0.24-5.58-0.66-6c-0.239-0.24-0.75-0.36-2.43-0.48
		c-0.09,0-0.06-0.24,0.03-0.24C177.696,1.143,179.166,1.232,180.216,1.232z"/>
	<path fill="#222222" d="M198.876,2.552c0.301,0,1.26-0.9,1.891-1.71c0.029-0.09,0.209,0,0.209,0.06c-0.24,2.04-0.3,4.38-0.3,6.51
		c0,0.12-0.239,0.12-0.27,0c-0.66-1.74-1.71-3.78-2.67-4.74c-0.9-0.9-1.92-1.35-3.511-1.35c-1.92,0-3.27,0.9-3.899,2.13
		c-0.659,1.32-0.989,3.27-0.989,7.11c0,3.78,0.27,5.58,0.84,6.75c0.779,1.53,1.979,2.16,3.779,2.16c1.62,0,2.67-0.78,3.03-1.5
		c0.21-0.39,0.271-1.08,0.271-3.3c0-2.43-0.031-2.82-0.15-2.94c-0.09-0.09-0.391-0.12-2.4-0.18c-0.09,0-0.09-0.27,0.03-0.27
		c3.12,0,5.22,0.03,8.52-0.15c0.09,0,0.09,0.27,0,0.27c-1.59,0.12-1.83,0.15-1.89,0.21c-0.09,0.09-0.211,0.871-0.211,3.63
		c-0.029,1.14,0,2.97,0.031,4.02c0,0.15-0.181,0.21-0.271,0.061c-0.69-0.931-1.38-1.711-1.71-1.711c-0.51,0-2.4,2.19-5.43,2.19
		c-2.58,0-4.89-0.99-6.51-2.61c-1.529-1.529-2.55-3.569-2.55-6.299c0-3.12,1.26-5.37,3.03-7.14c1.68-1.68,3.779-2.79,6.389-2.79
		C196.956,0.962,198.576,2.552,198.876,2.552z"/>
</g>
</svg>
