<?xml version="1.0" encoding="utf-8"?>
<!-- Generator: Adobe Illustrator 16.0.3, SVG Export Plug-In . SVG Version: 6.00 Build 0)  -->
<!DOCTYPE svg PUBLIC "-//W3C//DTD SVG 1.1//EN" "http://www.w3.org/Graphics/SVG/1.1/DTD/svg11.dtd">
<svg version="1.1" id="Layer_1" xmlns="http://www.w3.org/2000/svg" xmlns:xlink="http://www.w3.org/1999/xlink" x="0px" y="0px"
	 width="213px" height="97px" viewBox="0 0 213 97" enable-background="new 0 0 213 97" xml:space="preserve">
<g>
	<g>
		<path fill="#A3B83B" d="M188.627,63.088l-7.854,0.006c0,0.008-6.131,0.008-6.131,0.008l-0.006,6.671l6.089,0.007h7.542
			c7.675,0.089,10.111,2.907,10.111,7.059c0,4.518-4.605,7.768-13.45,7.768c-3.869,0.055-7.727-0.795-10.292-2.407v6.159
			c3.257,1.586,7.022,2.514,10.988,2.49c12.391-0.072,20.156-5.725,20.156-14.663C205.78,68.063,200.454,63.271,188.627,63.088z"/>
		<path fill="#A3B83B" d="M200.225,17.932c-5.292,0-9.058,3.407-10.049,8.883c-1.793-0.449-3.771-0.717-5.831-0.717
			c-9.608,0-17.145,5.473-17.145,15.167c0,0.052,0.005,0.102,0.005,0.155c0.083,9.593,7.582,15.011,17.137,15.013c0,0,0,0,0.003,0
			l0,0l0,0l0,0c9.6,0,17.142-5.473,17.142-15.168c0-4.937-1.973-8.702-5.118-11.307c0.093-4.218,1.976-5.922,4.756-5.922
			c0.806,0,1.527,0.177,2.514,0.177c1.888,0,2.875-1.344,2.875-2.958C206.513,19.367,204.716,17.932,200.225,17.932z
			 M184.345,50.688c-5.927,0-9.967-3.139-9.967-9.423c0-6.282,4.04-9.424,9.967-9.424c5.923,0,9.96,3.141,9.96,9.424
			C194.305,47.55,190.268,50.688,184.345,50.688z"/>
	</g>
	<path fill="#60B046" d="M147.776,26.098c-5.435,0-9.925,1.718-14.893,4.555v5.786c4.267-1.898,8.373-3.43,12.653-3.43
		c6.008,0,8.611,3.237,8.611,8.797V68.1c0,2.244,1.259,3.593,3.682,3.593c2.422,0,3.677-1.349,3.677-3.593V41.355
		C161.507,32.649,156.752,26.098,147.776,26.098z"/>
	<path fill="#2BB24C" d="M122.591,16.045c-2.605,0-4.762-2.157-4.762-4.754c0-2.601,2.152-4.758,4.762-4.758
		c2.604,0,4.755,2.157,4.755,4.758C127.346,13.889,125.194,16.045,122.591,16.045z M122.591,71.689
		c-2.428,0-3.683-1.348-3.683-3.592V29.685c0-2.239,1.255-3.586,3.683-3.586c2.422,0,3.678,1.348,3.678,3.586v38.414
		C126.269,70.342,125.013,71.689,122.591,71.689z"/>
	<path fill="#04A77E" d="M105.343,71.689c-2.424,0-3.681-1.348-3.681-3.592V10.12c0-2.238,1.257-3.587,3.681-3.587
		c2.426,0,3.683,1.349,3.683,3.587v57.979C109.025,70.342,107.769,71.689,105.343,71.689z"/>
	<path fill="#019C9E" d="M89.677,71.689c-1.075,0-2.332-0.448-3.141-1.703L73.88,50.688l-8.791,9.515v7.896
		c0,2.243-1.258,3.593-3.684,3.593c-2.425,0-3.682-1.35-3.682-3.593V10.12c-0.002-2.238,1.257-3.587,3.678-3.587
		c2.428,0,3.686,1.349,3.686,3.587v40.568l21.449-23.512c0.717-0.811,1.522-1.079,2.513-1.079c1.971,0,3.32,1.528,3.32,3.321
		c0,0.715-0.272,1.525-0.899,2.245L78.904,45.215l13.554,20.64c0.447,0.719,0.717,1.526,0.717,2.243
		C93.177,70.166,91.56,71.689,89.677,71.689z"/>
	<path fill="#0691B2" d="M35.48,26.098c-5.432,0-9.928,1.718-14.895,4.555v5.786c4.265-1.898,8.374-3.43,12.65-3.43
		c6.016,0,8.616,3.237,8.616,8.797V68.1c0,2.244,1.258,3.593,3.677,3.593c2.426,0,3.688-1.349,3.688-3.593V41.355
		C49.217,32.649,44.46,26.098,35.48,26.098z"/>
	<path fill="#0B7DB8" d="M10.527,16.045c-2.607,0-4.76-2.157-4.76-4.75c0-2.605,2.152-4.762,4.76-4.762
		c2.598,0,4.75,2.157,4.75,4.762C15.277,13.889,13.125,16.045,10.527,16.045z M10.527,71.689c-2.428,0-3.685-1.348-3.685-3.592
		V29.685c0-2.239,1.257-3.586,3.685-3.586c2.419,0,3.674,1.348,3.674,3.586v38.414C14.201,70.342,12.946,71.689,10.527,71.689z"/>
</g>
</svg>
